<svg width="400" height="400" viewBox="0 0 400 400" fill="none" xmlns="http://www.w3.org/2000/svg">
  <circle cx="200" cy="200" r="190" fill="white"/>
  
  <!-- Outer Sun Layer (Yellow) -->
  <path d="M70 160C70 88.203 128.203 30 200 30C271.797 30 330 88.203 330 160" stroke="#FCCE22" stroke-width="24" stroke-linecap="round"/>
  
  <!-- Middle Sun Layer (Yellow) -->
  <path d="M110 160C110 110.294 150.294 70 200 70C249.706 70 290 110.294 290 160" stroke="#FCCE22" stroke-width="24" stroke-linecap="round"/>
  
  <!-- Inner Sun Layer (Yellow) -->
  <path d="M150 160C150 132.386 172.386 110 200 110C227.614 110 250 132.386 250 160" stroke="#FCCE22" stroke-width="24" stroke-linecap="round"/>
  
  <!-- Bottom Left Waves (Green) -->
  <path d="M50 200C50 240 70 280 110 320" stroke="#24D366" stroke-width="24" stroke-linecap="round"/>
  <path d="M50 240C50 270 65 300 90 320" stroke="#24D366" stroke-width="24" stroke-linecap="round"/>
  <path d="M50 280C50 300 60 310 75 320" stroke="#24D366" stroke-width="24" stroke-linecap="round"/>
  <path d="M50 320C50 330 55 330 60 330" stroke="#24D366" stroke-width="24" stroke-linecap="round"/>

  <!-- Bottom Right Waves (Blue) -->
  <path d="M350 200C350 240 330 280 290 320" stroke="#00A9E0" stroke-width="24" stroke-linecap="round"/>
  <path d="M350 240C350 270 335 300 310 320" stroke="#00A9E0" stroke-width="24" stroke-linecap="round"/>
  <path d="M350 280C350 300 340 310 325 320" stroke="#00A9E0" stroke-width="24" stroke-linecap="round"/>
  <path d="M350 320C350 330 345 330 340 330" stroke="#00A9E0" stroke-width="24" stroke-linecap="round"/>
</svg>
